v -5.658690000 24.863000000 -0.294908000
v -11.805900000 30.995900000 6.535500000
v 1.213710000 26.623100000 4.297180000
v -2.862880000 37.285200000 -5.122290000
v 3.866680000 24.713000000 6.387240000
v -2.847830000 32.203800000 -1.722560000
v -1.273230000 23.837100000 8.032200000
v -5.595710000 36.072000000 -1.205580000
v -17.585000000 21.479000000 1.691040000
v 3.383450000 7.561210000 8.542890000
v 6.486290000 17.916800000 8.677070000
v -11.194100000 26.430900000 7.212900000
v -12.275500000 28.981500000 -0.972774000
v -15.134200000 28.767700000 -1.496510000
v -18.249300000 27.340200000 3.896890000
v -10.470300000 30.927500000 2.563650000
v -15.035000000 22.595600000 -1.719250000
v 2.982750000 20.540500000 -4.293100000
v -7.806330000 9.557970000 7.861870000
v -18.326000000 30.467300000 3.459150000
v -16.921800000 15.880000000 -0.548586000
v 9.744220000 15.701300000 3.106380000
v -12.044000000 30.821400000 -0.158156000
v -14.345500000 33.256900000 -9.111080000
v -3.521030000 10.159100000 9.761080000
v -1.845720000 19.206400000 11.129900000
v -8.704830000 25.988300000 2.843770000
v 2.921080000 20.102800000 9.434630000
v 0.823780000 10.995000000 11.039600000
v 10.029300000 9.405830000 5.781690000
v -10.359100000 10.228700000 6.493220000
v -6.672860000 20.016400000 8.536580000
v 3.927830000 11.628200000 9.583620000
v 6.497910000 23.718400000 -0.024236800
v -5.394820000 11.046000000 7.216440000
v -1.121230000 14.158600000 11.690600000
v -0.126040000 25.872800000 -0.901050000
v -17.508600000 16.085900000 4.127940000
v -19.105500000 24.038500000 2.518610000
v -9.468610000 13.410000000 7.960540000
v -9.808290000 28.414500000 0.669947000
v -15.990200000 34.851900000 -9.369860000
v -11.307800000 20.261700000 -4.175910000
v -16.380500000 25.189100000 -1.272260000
v 0.444556000 15.701400000 -7.213760000
v -18.628200000 23.225400000 8.703090000
v -4.600740000 16.410200000 11.260000000
v -10.364300000 25.770700000 -1.118640000
v -14.552600000 13.903500000 6.324030000
v -10.361500000 18.206400000 9.210810000
v -13.717800000 23.114200000 10.761400000
v -5.626390000 24.662800000 5.009380000
v -15.689200000 21.566400000 6.809250000
v -12.211200000 34.436700000 -11.406600000
v -14.140800000 30.200600000 -9.797060000
v -6.315760000 17.926200000 8.768060000
v -1.939710000 34.229700000 -4.987780000
v 5.956080000 23.226600000 6.467180000
v -11.201500000 22.906700000 7.141700000
v -5.801010000 7.677430000 11.186500000
v -11.760700000 7.073860000 9.624180000
v 7.759990000 11.522400000 6.581470000
v 12.107200000 14.309300000 1.995140000
v 2.026760000 16.896700000 11.199800000
v -14.646400000 31.207000000 0.313194000
v 5.910530000 6.981940000 0.600211000
v -14.348900000 36.452400000 -11.194200000
v 8.522250000 12.708400000 -0.994639000
v 12.024500000 11.124500000 1.316490000
v 0.011611200 22.841000000 -4.088710000
v -8.043530000 6.847420000 -6.286880000
v 2.956520000 18.864100000 -5.573870000
v 9.751840000 10.904400000 -1.443380000
v 7.497470000 19.136400000 -2.966170000
v 4.385400000 10.189000000 -5.149910000
v -6.421490000 22.457000000 -3.644980000
v -14.065300000 17.068400000 8.929930000
v 10.921100000 13.818100000 5.401010000
v -12.695800000 9.458190000 7.625050000
v -12.512900000 9.663370000 0.979338000
v -15.686400000 27.082200000 10.844800000
v -9.670990000 10.559100000 3.223430000
v -9.452220000 9.232360000 -2.083160000
v -15.106800000 6.831260000 -0.129478000
v -6.497180000 10.552500000 -1.854110000
v -12.141900000 11.485400000 0.520298000
v -10.201500000 13.375800000 -2.603750000
v 2.731650000 7.007560000 -4.228590000
v -6.010390000 17.537500000 -7.548190000
v -4.820840000 9.404480000 -5.796580000
v -3.854140000 13.690200000 -7.787310000
v -7.316740000 17.615400000 -4.742190000
v -12.814200000 15.558200000 -3.973060000
v -8.409780000 6.795730000 -3.587480000
v 1.865330000 7.445790000 -2.434130000
v -7.530950000 7.751130000 -3.135990000
v -0.781281000 7.344490000 2.766860000
v 4.539530000 7.146070000 5.575510000
v -5.709050000 7.334460000 2.818930000
v -13.018700000 6.736450000 4.282580000
v 1.340620000 7.925570000 6.758210000
v -7.028110000 7.026100000 8.596370000
f 54 55 67
f 24 67 55
f 42 67 24
f 54 13 55
f 91 89 45
f 55 14 24
f 45 89 72
f 45 75 91
f 75 90 91
f 42 65 67
f 90 89 91
f 89 92 18
f 90 88 71
f 89 18 72
f 75 45 72
f 71 88 94
f 83 90 71
f 92 89 90
f 75 88 90
f 70 18 92
f 72 74 75
f 70 92 76
f 6 57 4
f 14 55 13
f 24 14 42
f 92 90 85
f 43 92 93
f 88 95 94
f 76 92 43
f 92 87 93
f 72 18 74
f 54 67 65
f 4 57 23
f 96 94 95
f 48 76 43
f 68 75 74
f 76 37 70
f 94 83 71
f 90 83 85
f 43 93 17
f 70 74 18
f 43 17 48
f 85 87 92
f 93 21 17
f 85 83 87
f 34 74 70
f 16 6 4
f 84 83 94
f 13 54 65
f 87 86 93
f 86 21 93
f 57 41 23
f 14 65 42
f 95 88 66
f 17 44 14
f 17 14 48
f 66 75 68
f 48 1 76
f 88 75 66
f 6 41 57
f 96 95 99
f 16 4 8
f 13 48 14
f 70 37 34
f 73 66 68
f 84 80 83
f 17 9 44
f 68 74 22
f 87 83 86
f 13 41 48
f 96 99 94
f 8 4 23
f 48 27 1
f 23 41 13
f 95 66 97
f 21 9 17
f 23 16 8
f 76 1 37
f 44 39 14
f 83 80 86
f 44 9 39
f 34 22 74
f 73 63 69
f 14 20 65
f 41 27 48
f 95 97 99
f 13 65 23
f 73 68 63
f 16 41 6
f 66 73 69
f 38 21 86
f 84 94 100
f 34 37 3
f 37 1 3
f 94 99 100
f 39 15 14
f 52 3 1
f 52 1 27
f 66 69 30
f 63 68 22
f 20 14 15
f 86 80 82
f 2 16 23
f 98 97 66
f 63 22 78
f 80 100 82
f 100 99 102
f 38 86 49
f 84 100 80
f 9 21 38
f 2 65 20
f 66 30 98
f 58 34 3
f 23 65 2
f 63 30 69
f 49 86 82
f 34 58 22
f 27 41 12
f 39 9 53
f 100 79 82
f 30 63 78
f 2 41 16
f 9 38 53
f 7 3 52
f 79 31 82
f 82 40 49
f 39 46 15
f 99 97 102
f 58 3 5
f 2 12 41
f 40 82 31
f 11 22 58
f 12 59 27
f 97 98 101
f 38 77 53
f 62 78 22
f 62 22 11
f 30 62 98
f 59 52 27
f 7 5 3
f 38 49 77
f 30 78 62
f 39 53 46
f 49 40 77
f 100 102 61
f 20 15 46
f 62 10 98
f 59 32 52
f 81 2 20
f 97 101 102
f 20 46 81
f 32 7 52
f 7 58 5
f 19 35 56
f 40 31 19
f 100 61 79
f 77 59 53
f 101 98 102
f 53 59 51
f 50 32 59
f 2 81 12
f 33 10 62
f 33 62 11
f 102 98 10
f 46 53 51
f 79 19 31
f 77 50 59
f 19 56 40
f 40 56 32
f 50 40 32
f 102 19 61
f 56 35 47
f 51 59 12
f 28 11 58
f 77 40 50
f 58 7 28
f 32 28 7
f 35 60 25
f 81 51 12
f 19 60 35
f 79 61 19
f 29 10 33
f 47 35 25
f 102 10 60
f 102 60 19
f 32 56 26
f 46 51 81
f 26 28 32
f 29 25 10
f 64 33 11
f 25 60 10
f 64 29 33
f 64 11 28
f 36 25 29
f 28 26 64
f 56 47 26
f 47 25 36
f 36 29 64
f 47 36 26
f 26 36 64
